REM DIRINDEX 1\2,1\3,1\4,1\5,1\6
REM DIRNAME cjc030,folder01,folder02,folder03,folder04,folder05
TITLE ""
FILE "Disc5Track21.mp3" MP3
  TRACK 01 AUDIO
    TITLE "3:cjc030_08818"
    INDEX 01 00:00:00
  TRACK 02 AUDIO
    TITLE "0:"
    INDEX 01 00:01:07
  TRACK 03 AUDIO
    TITLE "4:cjc030_08819"
    INDEX 01 00:01:13
  TRACK 04 AUDIO
    TITLE "0:"
    INDEX 01 00:02:04
  TRACK 05 AUDIO
    TITLE "5:cjc030_08820"
    INDEX 01 00:02:14
  TRACK 06 AUDIO
    TITLE "0:"
    INDEX 01 00:03:21
  TRACK 07 AUDIO
    TITLE "3:cjc030_08821"
    INDEX 01 00:04:03
  TRACK 08 AUDIO
    TITLE "0:"
    INDEX 01 00:05:09
  TRACK 09 AUDIO
    TITLE "4:cjc030_08822"
    INDEX 01 00:05:16
  TRACK 10 AUDIO
    TITLE "0:"
    INDEX 01 00:06:08
  TRACK 11 AUDIO
    TITLE "5:cjc030_08823"
    INDEX 01 00:06:16
  TRACK 12 AUDIO
    TITLE "0:"
    INDEX 01 00:07:19
  TRACK 13 AUDIO
    TITLE "3:cjc030_08824"
    INDEX 01 00:08:09
  TRACK 14 AUDIO
    TITLE "0:"
    INDEX 01 00:09:12
  TRACK 15 AUDIO
    TITLE "4:cjc030_08825"
    INDEX 01 00:09:20
  TRACK 16 AUDIO
    TITLE "0:"
    INDEX 01 00:10:19
  TRACK 17 AUDIO
    TITLE "5:cjc030_08826"
    INDEX 01 00:10:23
  TRACK 18 AUDIO
    TITLE "0:"
    INDEX 01 00:11:29
  TRACK 19 AUDIO
    TITLE "3:cjc030_08827"
    INDEX 01 00:12:09
  TRACK 20 AUDIO
    TITLE "0:"
    INDEX 01 00:13:12
  TRACK 21 AUDIO
    TITLE "4:cjc030_08828"
    INDEX 01 00:13:22
  TRACK 22 AUDIO
    TITLE "0:"
    INDEX 01 00:14:02
  TRACK 23 AUDIO
    TITLE "5:cjc030_08829"
    INDEX 01 00:14:07
  TRACK 24 AUDIO
    TITLE "0:"
    INDEX 01 00:15:11
  TRACK 25 AUDIO
    TITLE "3:cjc030_08830"
    INDEX 01 00:15:68
  TRACK 26 AUDIO
    TITLE "0:"
    INDEX 01 00:17:02
  TRACK 27 AUDIO
    TITLE "4:cjc030_08831"
    INDEX 01 00:17:08
  TRACK 28 AUDIO
    TITLE "0:"
    INDEX 01 00:18:05
  TRACK 29 AUDIO
    TITLE "5:cjc030_08832"
    INDEX 01 00:18:13
  TRACK 30 AUDIO
    TITLE "0:"
    INDEX 01 00:19:20
  TRACK 31 AUDIO
    TITLE "6:cjc030_08833"
    INDEX 01 00:19:38
  TRACK 32 AUDIO
    TITLE "0:"
    INDEX 01 00:22:64
  TRACK 33 AUDIO
    TITLE "3:cjc030_08834"
    INDEX 01 00:23:40
  TRACK 34 AUDIO
    TITLE "0:"
    INDEX 01 00:24:43
  TRACK 35 AUDIO
    TITLE "4:cjc030_08835"
    INDEX 01 00:24:49
  TRACK 36 AUDIO
    TITLE "0:"
    INDEX 01 00:27:10
  TRACK 37 AUDIO
    TITLE "5:cjc030_08836"
    INDEX 01 00:27:22
  TRACK 38 AUDIO
    TITLE "0:"
    INDEX 01 00:28:19
  TRACK 39 AUDIO
    TITLE "6:cjc030_08837"
    INDEX 01 00:28:35
  TRACK 40 AUDIO
    TITLE "0:"
    INDEX 01 00:31:14
  TRACK 41 AUDIO
    TITLE "3:cjc030_08838"
    INDEX 01 00:31:61
  TRACK 42 AUDIO
    TITLE "0:"
    INDEX 01 00:33:13
  TRACK 43 AUDIO
    TITLE "4:cjc030_08839"
    INDEX 01 00:33:21
  TRACK 44 AUDIO
    TITLE "0:"
    INDEX 01 00:37:20
  TRACK 45 AUDIO
    TITLE "5:cjc030_08840"
    INDEX 01 00:37:28
  TRACK 46 AUDIO
    TITLE "0:"
    INDEX 01 00:38:55
  TRACK 47 AUDIO
    TITLE "6:cjc030_08841"
    INDEX 01 00:38:71
  TRACK 48 AUDIO
    TITLE "0:"
    INDEX 01 00:42:43
  TRACK 49 AUDIO
    TITLE "3:cjc030_08842"
    INDEX 01 00:43:21
  TRACK 50 AUDIO
    TITLE "0:"
    INDEX 01 00:44:24
  TRACK 51 AUDIO
    TITLE "4:cjc030_08843"
    INDEX 01 00:44:32
  TRACK 52 AUDIO
    TITLE "0:"
    INDEX 01 00:46:33
  TRACK 53 AUDIO
    TITLE "5:cjc030_08844"
    INDEX 01 00:46:43
  TRACK 54 AUDIO
    TITLE "0:"
    INDEX 01 00:47:44
  TRACK 55 AUDIO
    TITLE "6:cjc030_08845"
    INDEX 01 00:47:58
  TRACK 56 AUDIO
    TITLE "0:"
    INDEX 01 00:49:43
  TRACK 57 AUDIO
    TITLE "3:cjc030_08846"
    INDEX 01 00:50:19
  TRACK 58 AUDIO
    TITLE "0:"
    INDEX 01 00:51:26
  TRACK 59 AUDIO
    TITLE "4:cjc030_08847"
    INDEX 01 00:51:36
  TRACK 60 AUDIO
    TITLE "0:"
    INDEX 01 00:54:23
  TRACK 61 AUDIO
    TITLE "5:cjc030_08848"
    INDEX 01 00:54:29
  TRACK 62 AUDIO
    TITLE "0:"
    INDEX 01 00:55:38
  TRACK 63 AUDIO
    TITLE "6:cjc030_08849"
    INDEX 01 00:55:57
  TRACK 64 AUDIO
    TITLE "0:"
    INDEX 01 00:59:38
